<?xml version="1.0" encoding="UTF-8"?>
<svg width="800px" height="800px" version="1.1" viewBox="0 0 32 32" xmlns="http://www.w3.org/2000/svg" xmlns:cc="http://creativecommons.org/ns#" xmlns:dc="http://purl.org/dc/elements/1.1/" xmlns:rdf="http://www.w3.org/1999/02/22-rdf-syntax-ns#">
<defs>
<style>.cls-1{fill:#ff5019;}.cls-2{fill:#ff774c;}.cls-3{fill:#ff8b66;}.cls-4{fill:#ffd28f;}</style>
</defs>
<title>Tomato</title>
<circle class="cls-1" cx="16" cy="16" r="15" fill="#474747"/>
<circle class="cls-2" transform="rotate(51)" cx="22.503" cy="-2.3652" r="12.19" fill="#5e5e5e"/>
<path class="cls-4" d="m18.169 7.9055a0.5 0.5 0 0 1-0.35355-0.61238l0.41929-1.5648a0.5 0.5 0 0 1 0.96593 0.25882l-0.41929 1.5648a0.5 0.5 0 0 1-0.61237 0.35355z" fill="#a3a3a3"/>
<path class="cls-4" d="m20.19 8.7427a0.5 0.5 0 0 1-0.18301-0.68302l0.81-1.403a0.5 0.5 0 0 1 0.86602 0.5l-0.81 1.403a0.5 0.5 0 0 1-0.68301 0.18301z" fill="#a3a3a3"/>
<path class="cls-4" d="m21.926 10.074a0.5 0.5 0 0 1 7e-6 -0.70711l1.1455-1.1455a0.5 0.5 0 0 1 0.70711 0.70711l-1.1455 1.1455a0.5 0.5 0 0 1-0.7071-2e-6z" fill="#a3a3a3"/>
<path class="cls-4" d="m23.257 11.81a0.5 0.5 0 0 1 0.18302-0.68301l1.403-0.81a0.5 0.5 0 0 1 0.5 0.86603l-1.403 0.81a0.5 0.5 0 0 1-0.68301-0.18301z" fill="#a3a3a3"/>
<path class="cls-4" d="m24.094 13.831a0.5 0.5 0 0 1 0.35356-0.61237l1.5648-0.41928a0.5 0.5 0 0 1 0.25882 0.96592l-1.5648 0.41929a0.5 0.5 0 0 1-0.61237-0.35355z" fill="#a3a3a3"/>
<path class="cls-4" d="m24.38 16a0.5 0.5 0 0 1 0.5-0.5l1.62 4e-6a0.5 0.5 0 0 1-2e-6 1l-1.62-1e-6a0.5 0.5 0 0 1-0.5-0.5z" fill="#a3a3a3"/>
<path class="cls-4" d="m24.094 18.169a0.5 0.5 0 0 1 0.61238-0.35355l1.5648 0.41929a0.5 0.5 0 0 1-0.25882 0.96592l-1.5648-0.41929a0.5 0.5 0 0 1-0.35355-0.61237z" fill="#a3a3a3"/>
<path class="cls-4" d="m23.257 20.19a0.5 0.5 0 0 1 0.68302-0.18301l1.403 0.81a0.5 0.5 0 0 1-0.5 0.86602l-1.403-0.81a0.5 0.5 0 0 1-0.18301-0.68301z" fill="#a3a3a3"/>
<path class="cls-4" d="m21.926 21.926a0.5 0.5 0 0 1 0.70711 7e-6l1.1455 1.1455a0.5 0.5 0 0 1-0.70711 0.7071l-1.1455-1.1455a0.5 0.5 0 0 1 1e-6 -0.70711z" fill="#a3a3a3"/>
<path class="cls-4" d="m20.19 23.257a0.5 0.5 0 0 1 0.68301 0.18302l0.81 1.403a0.5 0.5 0 0 1-0.86602 0.5l-0.81-1.403a0.5 0.5 0 0 1 0.18301-0.68301z" fill="#a3a3a3"/>
<path class="cls-4" d="m18.169 24.094a0.5 0.5 0 0 1 0.61237 0.35356l0.41928 1.5648a0.5 0.5 0 0 1-0.96592 0.25882l-0.41929-1.5648a0.5 0.5 0 0 1 0.35355-0.61237z" fill="#a3a3a3"/>
<path class="cls-4" d="m16 24.38a0.5 0.5 0 0 1 0.5 0.5l-5e-6 1.62a0.5 0.5 0 0 1-1-3e-6l1e-6 -1.62a0.5 0.5 0 0 1 0.5-0.5z" fill="#a3a3a3"/>
<path class="cls-4" d="m13.831 24.094a0.5 0.5 0 0 1 0.35355 0.61238l-0.41929 1.5648a0.5 0.5 0 0 1-0.96592-0.25882l0.41929-1.5648a0.5 0.5 0 0 1 0.61237-0.35355z" fill="#a3a3a3"/>
<path class="cls-4" d="m11.81 23.257a0.5 0.5 0 0 1 0.18301 0.68302l-0.81 1.403a0.5 0.5 0 0 1-0.86602-0.5l0.81-1.403a0.5 0.5 0 0 1 0.68301-0.18301z" fill="#a3a3a3"/>
<path class="cls-4" d="m10.074 21.926a0.5 0.5 0 0 1-5e-6 0.70711l-1.1455 1.1455a0.5 0.5 0 0 1-0.7071-0.70711l1.1455-1.1455a0.5 0.5 0 0 1 0.70711 0z" fill="#a3a3a3"/>
<path class="cls-4" d="m8.7427 20.19a0.5 0.5 0 0 1-0.18302 0.68301l-1.403 0.81a0.5 0.5 0 0 1-0.5-0.86602l1.403-0.81a0.5 0.5 0 0 1 0.68301 0.18301z" fill="#a3a3a3"/>
<path class="cls-4" d="m7.9055 18.169a0.5 0.5 0 0 1-0.35356 0.61237l-1.5648 0.41928a0.5 0.5 0 0 1-0.25882-0.96592l1.5648-0.41929a0.5 0.5 0 0 1 0.61237 0.35355z" fill="#a3a3a3"/>
<path class="cls-4" d="m7.62 16a0.5 0.5 0 0 1-0.5 0.5l-1.62-4e-6a0.5 0.5 0 0 1 3.4e-6 -1l1.62 1e-6a0.5 0.5 0 0 1 0.5 0.5z" fill="#a3a3a3"/>
<path class="cls-4" d="m7.9055 13.831a0.5 0.5 0 0 1-0.61238 0.35355l-1.5648-0.41929a0.5 0.5 0 0 1 0.25882-0.96592l1.5648 0.41929a0.5 0.5 0 0 1 0.35355 0.61237z" fill="#a3a3a3"/>
<path class="cls-4" d="m8.7427 11.81a0.5 0.5 0 0 1-0.68301 0.18301l-1.403-0.81a0.5 0.5 0 0 1 0.5-0.86602l1.403 0.81a0.5 0.5 0 0 1 0.18301 0.68301z" fill="#a3a3a3"/>
<path class="cls-4" d="m10.074 10.074a0.5 0.5 0 0 1-0.70711-4e-6l-1.1455-1.1455a0.5 0.5 0 0 1 0.70711-0.7071l1.1455 1.1455a0.5 0.5 0 0 1 1e-6 0.70711z" fill="#a3a3a3"/>
<path class="cls-4" d="m11.81 8.7427a0.5 0.5 0 0 1-0.68301-0.18302l-0.81-1.403a0.5 0.5 0 0 1 0.86603-0.5l0.81 1.403a0.5 0.5 0 0 1-0.18301 0.68301z" fill="#a3a3a3"/>
<path class="cls-4" d="m13.831 7.9055a0.5 0.5 0 0 1-0.61237-0.35356l-0.41928-1.5648a0.5 0.5 0 0 1 0.96593-0.25882l0.41928 1.5648a0.5 0.5 0 0 1-0.35355 0.61237z" fill="#a3a3a3"/>
<path class="cls-4" d="m16 7.62a0.5 0.5 0 0 1-0.5-0.5l4e-6 -1.62a0.5 0.5 0 0 1 1 3.9e-6l-2e-6 1.62a0.5 0.5 0 0 1-0.5 0.5z" fill="#a3a3a3"/>
<path class="cls-3" d="m17.721 17.725c-0.12 3.83-3.33 3.83-3.45 0-3.83-0.12-3.83-3.33 0-3.45 0.12-3.83 3.33-3.83 3.45 0 3.84 0.13 3.84 3.33 0 3.45z" fill="#8c8c8c"/>
<metadata>
<rdf:RDF>
<cc:Work rdf:about="">
<dc:title>Tomato</dc:title>
</cc:Work>
</rdf:RDF>
</metadata>
</svg>
